<svg width="46" height="41" viewBox="0 0 46 41" fill="none" xmlns="http://www.w3.org/2000/svg">
<path d="M26.9369 7.91751C21.5163 8.61421 10.0936 5.6156 9.39689 0.194794L9.31662 0.205114C9.8742 4.54367 12.1325 8.48301 15.5945 11.1566C19.0566 13.8302 23.4389 15.019 27.7775 14.4616C30.3806 14.127 33.0101 14.8402 35.0875 16.4443C37.1649 18.0484 38.5198 20.4121 38.8544 23.0152C39.1896 25.6182 38.4768 28.2481 36.8731 30.3256C35.2693 32.4034 32.9059 33.7587 30.3029 34.0939C27.6996 34.4289 25.07 33.7161 22.9923 32.1124C20.9147 30.5086 19.5592 28.1452 19.2241 25.5422C18.948 23.3938 18.2514 21.321 17.1741 19.4419C16.0968 17.5629 14.66 15.9143 12.9456 14.5906C11.2312 13.2668 9.27295 12.2936 7.18248 11.7267C5.09203 11.1597 2.91036 11.0101 0.76207 11.2863L0.7723 11.3659C6.19209 10.6693 11.9812 20.9578 12.6801 26.3791L12.679 26.3792C13.0949 29.6148 14.4608 32.6543 16.604 35.1135C18.7473 37.5727 21.5716 39.3412 24.7199 40.1952C27.8683 41.0493 31.1991 40.9507 34.2914 39.9116C37.3836 38.8727 40.0983 36.9401 42.0923 34.3584C44.086 31.7765 45.2696 28.6615 45.4932 25.4069C45.7168 22.1525 44.9701 18.905 43.348 16.0748C41.7258 13.2446 39.3008 10.9591 36.3797 9.50711C33.4584 8.05511 30.1723 7.50201 26.9369 7.91751Z" fill="url(#paint0_linear_1_61)"/>
<defs>
<linearGradient id="paint0_linear_1_61" x1="15.803" y1="5.70576" x2="48.7901" y2="43.6409" gradientUnits="userSpaceOnUse">
<stop stop-color="#57B8FF"/>
<stop offset="0.940625" stop-color="#038EF2"/>
<stop offset="1" stop-color="white" stop-opacity="0"/>
</linearGradient>
</defs>
</svg> 