<svg width="33" height="32" viewBox="0 0 33 32" fill="none" xmlns="http://www.w3.org/2000/svg">
<g id="IMAGE" clip-path="url(#clip0_1_66)">
<g id="Group">
<path id="Vector" d="M12.6619 23.9199C10.4341 23.9199 8.62158 25.7324 8.62158 27.9603C8.62158 30.1881 10.4341 32.0006 12.6619 32.0006C14.8898 32.0006 16.7023 30.1881 16.7023 27.9603C16.7023 25.7324 14.8897 23.9199 12.6619 23.9199ZM12.6619 29.5764C11.7706 29.5764 11.0458 28.8516 11.0458 27.9603C11.0458 27.069 11.7706 26.3442 12.6619 26.3442C13.5528 26.3442 14.2781 27.069 14.2781 27.9603C14.2781 28.8515 13.5533 29.5764 12.6619 29.5764Z" fill="white"/>
<path id="Vector_2" d="M24.6212 23.9199C22.3933 23.9199 20.5808 25.7324 20.5808 27.9603C20.5808 30.1881 22.3933 32.0006 24.6212 32.0006C26.849 32.0006 28.6615 30.1881 28.6615 27.9603C28.6615 25.7324 26.849 23.9199 24.6212 23.9199ZM24.6212 29.5764C23.7299 29.5764 23.0051 28.8516 23.0051 27.9603C23.0051 27.069 23.7299 26.3442 24.6212 26.3442C25.5125 26.3442 26.2373 27.069 26.2373 27.9603C26.2373 28.8515 25.5125 29.5764 24.6212 29.5764Z" fill="white"/>
<path id="Vector_3" d="M31.6304 7.89211C31.4001 7.60279 31.0511 7.43436 30.6818 7.43436H9.4579L8.3561 1.86594C8.25953 1.37826 7.87491 0.998883 7.3856 0.909196L2.53718 0.0203247C1.87743 -0.1013 1.24712 0.335511 1.12631 0.994071C1.0055 1.65263 1.44144 2.28413 2.10006 2.40494L6.13798 3.14512L9.69509 21.1242C9.8074 21.6919 10.3056 22.1012 10.8841 22.1012H27.8536C28.418 22.1012 28.9073 21.7121 29.0346 21.1614L31.8628 8.91916C31.946 8.55917 31.8604 8.18098 31.6304 7.89211ZM26.8895 19.677H11.8796L9.93746 9.85897H29.1573L26.8895 19.677Z" fill="white"/>
</g>
</g>
<defs>
<clipPath id="clip0_1_66">
<rect width="32" height="32" fill="white" transform="translate(0.5)"/>
</clipPath>
</defs>
</svg>
