<svg width="33" height="32" viewBox="0 0 33 32" fill="none" xmlns="http://www.w3.org/2000/svg">
<g id="IMAGE">
<path id="Vector" d="M17.7468 7.25C18.5598 8.38815 18.9968 9.75188 18.9968 11.1506V12.5C19.4253 12.5 19.8414 12.3568 20.1791 12.0931C20.5168 11.8294 20.7567 11.4605 20.8606 11.0448L20.9968 10.5L21.3663 10.9434C21.9621 11.6583 22.2854 12.561 22.2789 13.4915C22.2725 14.4221 21.9367 15.3202 21.3311 16.0268C21.1041 16.2915 20.9855 16.6322 20.9988 16.9806C21.0122 17.3291 21.1565 17.6596 21.4031 17.9062C21.5407 18.0439 21.7059 18.151 21.8877 18.2205C22.0696 18.29 22.2641 18.3203 22.4584 18.3096C22.6528 18.2988 22.8427 18.2471 23.0158 18.158C23.1889 18.0688 23.3412 17.9441 23.4628 17.7921L24.4968 16.5L25.4968 19C25.9503 20.5115 25.986 22.1177 25.6002 23.6479C25.2144 25.1781 24.4215 26.5753 23.3056 27.6912L23.1795 27.8173C21.4619 29.535 19.1322 30.5 16.7031 30.5H15.6828C14.1011 30.5 12.5464 30.0904 11.17 29.3111C9.79359 28.5318 8.64247 27.4094 7.8287 26.0531C6.85428 24.4291 6.40726 22.5429 6.5492 20.6542C6.69114 18.7656 7.41505 16.9674 8.62127 15.5072L12.669 10.6073C13.0679 10.1244 13.3242 9.53994 13.4093 8.91945C13.4943 8.29897 13.4046 7.66707 13.1503 7.09475C12.8276 6.36877 12.7719 5.55208 12.9932 4.78904C13.2144 4.026 13.6983 3.36575 14.3593 2.925L16.4968 1.5V3.34944C16.4968 4.74812 16.9339 6.11185 17.7468 7.25Z" fill="url(#paint0_linear_1_95)"/>
<path id="Vector_2" d="M20.189 27.0882L20.1934 27.0838C20.9711 26.3001 21.526 25.3234 21.8009 24.2541C22.0758 23.1848 22.0608 22.0616 21.7575 21L20.3029 22.4546C20.1657 22.5919 20.0027 22.7008 19.8233 22.7751C19.644 22.8494 19.4517 22.8877 19.2576 22.8877C19.0635 22.8877 18.8712 22.8494 18.6919 22.7751C18.5125 22.7008 18.3495 22.5919 18.2123 22.4546C17.9514 22.1938 17.7974 21.8448 17.7807 21.4763C17.7639 21.1078 17.8855 20.7463 18.1217 20.4629C18.608 19.8794 18.9136 19.1667 19.0012 18.4122C19.0887 17.6577 18.9545 16.8941 18.6148 16.2147L16.2575 11.5L15.895 15.4875C15.8515 15.9657 15.7119 16.4303 15.4845 16.8532C15.2571 17.2762 14.9466 17.6488 14.5717 17.9489L12.5109 19.5976C11.9639 20.0352 11.5223 20.5902 11.2188 21.2216C10.9154 21.853 10.7578 22.5445 10.7578 23.2451V23.8125C10.7578 24.4973 10.9084 25.1736 11.1988 25.7938C11.4892 26.4139 11.9125 26.9626 12.4385 27.4009C13.2902 28.1106 14.3665 28.4943 15.475 28.4834L16.9199 28.4691C18.1488 28.4568 19.3234 27.9606 20.189 27.0882Z" fill="#FDD04A"/>
<path id="Vector_3" d="M8 12C7.86739 12 7.74021 11.9473 7.64645 11.8536C7.55268 11.7598 7.5 11.6326 7.5 11.5V10.5C7.5 10.3674 7.55268 10.2402 7.64645 10.1464C7.74021 10.0527 7.86739 10 8 10C8.13261 10 8.25979 10.0527 8.35355 10.1464C8.44732 10.2402 8.5 10.3674 8.5 10.5V11.5C8.5 11.6326 8.44732 11.7598 8.35355 11.8536C8.25979 11.9473 8.13261 12 8 12Z" fill="#FE691E"/>
<path id="Vector_4" d="M9.5 9.5C9.36739 9.5 9.24021 9.44732 9.14645 9.35355C9.05268 9.25979 9 9.13261 9 9V8C9 7.86739 9.05268 7.74021 9.14645 7.64645C9.24021 7.55268 9.36739 7.5 9.5 7.5C9.63261 7.5 9.75979 7.55268 9.85355 7.64645C9.94732 7.74021 10 7.86739 10 8V9C10 9.13261 9.94732 9.25979 9.85355 9.35355C9.75979 9.44732 9.63261 9.5 9.5 9.5Z" fill="#FF8D54"/>
<path id="Vector_5" d="M7.5 7.5C7.36739 7.5 7.24021 7.44732 7.14645 7.35355C7.05268 7.25979 7 7.13261 7 7V6C7 5.86739 7.05268 5.74021 7.14645 5.64645C7.24021 5.55268 7.36739 5.5 7.5 5.5C7.63261 5.5 7.75979 5.55268 7.85355 5.64645C7.94732 5.74021 8 5.86739 8 6V7C8 7.13261 7.94732 7.25979 7.85355 7.35355C7.75979 7.44732 7.63261 7.5 7.5 7.5Z" fill="#FFB895"/>
<path id="Vector_6" d="M25 13.5C24.8674 13.5 24.7402 13.4473 24.6464 13.3536C24.5527 13.2598 24.5 13.1326 24.5 13V12C24.5 11.8674 24.5527 11.7402 24.6464 11.6464C24.7402 11.5527 24.8674 11.5 25 11.5C25.1326 11.5 25.2598 11.5527 25.3536 11.6464C25.4473 11.7402 25.5 11.8674 25.5 12V13C25.5 13.1326 25.4473 13.2598 25.3536 13.3536C25.2598 13.4473 25.1326 13.5 25 13.5Z" fill="#FE691E"/>
<path id="Vector_7" d="M23.5 10C23.3674 10 23.2402 9.94732 23.1464 9.85355C23.0527 9.75979 23 9.63261 23 9.5V8.5C23 8.36739 23.0527 8.24021 23.1464 8.14645C23.2402 8.05268 23.3674 8 23.5 8C23.6326 8 23.7598 8.05268 23.8536 8.14645C23.9473 8.24021 24 8.36739 24 8.5V9.5C24 9.63261 23.9473 9.75979 23.8536 9.85355C23.7598 9.94732 23.6326 10 23.5 10Z" fill="#FF8D54"/>
<path id="Vector_8" d="M25.5 8.5C25.3674 8.5 25.2402 8.44732 25.1464 8.35355C25.0527 8.25979 25 8.13261 25 8V6.5C25 6.36739 25.0527 6.24021 25.1464 6.14645C25.2402 6.05268 25.3674 6 25.5 6C25.6326 6 25.7598 6.05268 25.8536 6.14645C25.9473 6.24021 26 6.36739 26 6.5V8C26 8.13261 25.9473 8.25979 25.8536 8.35355C25.7598 8.44732 25.6326 8.5 25.5 8.5Z" fill="#FFB895"/>
</g>
<defs>
<linearGradient id="paint0_linear_1_95" x1="16.1944" y1="1.5" x2="16.1944" y2="30.5" gradientUnits="userSpaceOnUse">
<stop stop-color="#FF9159"/>
<stop offset="0.6875" stop-color="#FF7631"/>
<stop offset="1" stop-color="#FF6A1F"/>
</linearGradient>
</defs>
</svg>
