<svg width="171" height="48" viewBox="0 0 171 48" fill="none" xmlns="http://www.w3.org/2000/svg">
<g id="IMAGE">
<path id="Vector" d="M27.9369 11.9175C22.5163 12.6142 11.0936 9.6156 10.3969 4.19479L10.3166 4.20511C10.8742 8.54367 13.1325 12.483 16.5945 15.1566C20.0566 17.8302 24.4389 19.019 28.7775 18.4616C31.3806 18.127 34.0101 18.8402 36.0875 20.4443C38.1649 22.0484 39.5198 24.4121 39.8544 27.0152C40.1896 29.6182 39.4768 32.2481 37.8731 34.3256C36.2693 36.4034 33.9059 37.7587 31.3029 38.0939C28.6996 38.4289 26.07 37.7161 23.9923 36.1124C21.9147 34.5086 20.5592 32.1452 20.2241 29.5422C19.948 27.3938 19.2514 25.321 18.1741 23.4419C17.0968 21.5629 15.66 19.9143 13.9456 18.5906C12.2312 17.2668 10.273 16.2936 8.18248 15.7267C6.09203 15.1597 3.91036 15.0101 1.76207 15.2863L1.7723 15.3659C7.19209 14.6693 12.9812 24.9578 13.6801 30.3791L13.679 30.3792C14.0949 33.6148 15.4608 36.6543 17.604 39.1135C19.7473 41.5727 22.5716 43.3412 25.7199 44.1952C28.8683 45.0493 32.1991 44.9507 35.2914 43.9116C38.3836 42.8727 41.0983 40.9401 43.0923 38.3584C45.086 35.7765 46.2696 32.6615 46.4932 29.4069C46.7168 26.1525 45.9701 22.905 44.348 20.0748C42.7258 17.2446 40.3008 14.9591 37.3797 13.5071C34.4584 12.0551 31.1723 11.502 27.9369 11.9175Z" fill="url(#paint0_linear_1_60)"/>
<path id="Vector_2" d="M58.2872 14.0958V33H54.4955V14.0958H58.2872ZM70.348 17.7792C72.1355 17.7792 73.5799 18.3479 74.6813 19.4854C75.7827 20.6049 76.3334 22.1757 76.3334 24.1979V33H72.5417V24.7125C72.5417 23.5208 72.2438 22.609 71.648 21.9771C71.0521 21.3271 70.2396 21.0021 69.2105 21.0021C68.1632 21.0021 67.3327 21.3271 66.7188 21.9771C66.123 22.609 65.8251 23.5208 65.8251 24.7125V33H62.0334V17.9958H65.8251V19.8646C66.3306 19.2146 66.9716 18.709 67.748 18.3479C68.5424 17.9687 69.4091 17.7792 70.348 17.7792ZM86.8182 21.1104H84.1911V33H80.3453V21.1104H78.6391V17.9958H80.3453V17.2375C80.3453 15.3958 80.8689 14.0417 81.9161 13.175C82.9634 12.3083 84.5432 11.9021 86.6557 11.9563V15.1521C85.7349 15.134 85.0939 15.2875 84.7328 15.6125C84.3717 15.9375 84.1911 16.5243 84.1911 17.3729V17.9958H86.8182V21.1104ZM91.1983 16.2083C90.5303 16.2083 89.9705 16.0007 89.5192 15.5854C89.0858 15.1521 88.8692 14.6194 88.8692 13.9875C88.8692 13.3556 89.0858 12.8319 89.5192 12.4167C89.9705 11.9833 90.5303 11.7667 91.1983 11.7667C91.8664 11.7667 92.4171 11.9833 92.8504 12.4167C93.3018 12.8319 93.5275 13.3556 93.5275 13.9875C93.5275 14.6194 93.3018 15.1521 92.8504 15.5854C92.4171 16.0007 91.8664 16.2083 91.1983 16.2083ZM93.0671 17.9958V33H89.2754V17.9958H93.0671ZM105.128 17.7792C106.915 17.7792 108.36 18.3479 109.461 19.4854C110.563 20.6049 111.113 22.1757 111.113 24.1979V33H107.322V24.7125C107.322 23.5208 107.024 22.609 106.428 21.9771C105.832 21.3271 105.02 21.0021 103.99 21.0021C102.943 21.0021 102.113 21.3271 101.499 21.9771C100.903 22.609 100.605 23.5208 100.605 24.7125V33H96.8133V17.9958H100.605V19.8646C101.11 19.2146 101.751 18.709 102.528 18.3479C103.322 17.9687 104.189 17.7792 105.128 17.7792ZM116.642 16.2083C115.974 16.2083 115.414 16.0007 114.963 15.5854C114.529 15.1521 114.313 14.6194 114.313 13.9875C114.313 13.3556 114.529 12.8319 114.963 12.4167C115.414 11.9833 115.974 11.7667 116.642 11.7667C117.31 11.7667 117.861 11.9833 118.294 12.4167C118.745 12.8319 118.971 13.3556 118.971 13.9875C118.971 14.6194 118.745 15.1521 118.294 15.5854C117.861 16.0007 117.31 16.2083 116.642 16.2083ZM118.511 17.9958V33H114.719V17.9958H118.511ZM125.723 29.8854H132.413V33H121.417V29.9396L127.971 21.1104H121.444V17.9958H132.332V21.0563L125.723 29.8854ZM134.374 25.4437C134.374 23.9271 134.672 22.5819 135.268 21.4083C135.881 20.2347 136.703 19.3319 137.732 18.7C138.779 18.0681 139.944 17.7521 141.226 17.7521C142.345 17.7521 143.32 17.9778 144.151 18.4292C145 18.8806 145.677 19.4493 146.182 20.1354V17.9958H150.001V33H146.182V30.8063C145.695 31.5104 145.018 32.0972 144.151 32.5667C143.302 33.0181 142.318 33.2438 141.199 33.2438C139.935 33.2438 138.779 32.9188 137.732 32.2688C136.703 31.6188 135.881 30.7069 135.268 29.5333C134.672 28.3417 134.374 26.9785 134.374 25.4437ZM146.182 25.4979C146.182 24.5771 146.002 23.7917 145.64 23.1417C145.279 22.4736 144.792 21.9681 144.178 21.625C143.564 21.2639 142.905 21.0833 142.201 21.0833C141.497 21.0833 140.847 21.2549 140.251 21.5979C139.655 21.941 139.168 22.4465 138.788 23.1146C138.427 23.7646 138.247 24.541 138.247 25.4437C138.247 26.3465 138.427 27.141 138.788 27.8271C139.168 28.4951 139.655 29.0097 140.251 29.3708C140.865 29.7319 141.515 29.9125 142.201 29.9125C142.905 29.9125 143.564 29.741 144.178 29.3979C144.792 29.0368 145.279 28.5312 145.64 27.8812C146.002 27.2132 146.182 26.4188 146.182 25.4979ZM155.627 16.2083C154.959 16.2083 154.399 16.0007 153.948 15.5854C153.515 15.1521 153.298 14.6194 153.298 13.9875C153.298 13.3556 153.515 12.8319 153.948 12.4167C154.399 11.9833 154.959 11.7667 155.627 11.7667C156.295 11.7667 156.846 11.9833 157.279 12.4167C157.731 12.8319 157.956 13.3556 157.956 13.9875C157.956 14.6194 157.731 15.1521 157.279 15.5854C156.846 16.0007 156.295 16.2083 155.627 16.2083ZM157.496 17.9958V33H153.704V17.9958H157.496Z" fill="white"/>
<path id="Vector_3" d="M169.998 26.4893H164.5V31.9871H169.998V26.4893Z" fill="#3BAAFB"/>
</g>
<defs>
<linearGradient id="paint0_linear_1_60" x1="16.803" y1="9.70576" x2="49.7901" y2="47.6409" gradientUnits="userSpaceOnUse">
<stop stop-color="#57B8FF"/>
<stop offset="0.940625" stop-color="#038EF2"/>
<stop offset="1" stop-color="white" stop-opacity="0"/>
</linearGradient>
</defs>
</svg>
